{"title":"The Salvation 2014 BRRip x264 AAC-MiLLENiUM","uid":11556208,"size":1148699949,"categoryP":"video","categoryS":"movies","magnet":"?xt=urn:btih:3dc7e07603c50c49e249c911630f150a61530879&amp;dn=The+Salvation+2014+BRRip+x264+AAC-MiLLENiUM&amp;tr=udp%3A%2F%2Ftracker.openbittorrent.com%3A80&amp;tr=udp%3A%2F%2Fopen.demonii.com%3A1337&amp;tr=udp%3A%2F%2Ftracker.coppersurfer.tk%3A6969&amp;tr=udp%3A%2F%2Fexodus.desync.com%3A6969","seeders":1,"leechers":0,"uploader":"TvTeam","files":4,"time":1416788741,"description":" &lt;a href=&quot;http://www.torrenting.com&quot; rel=&quot;nofollow&quot; target=&quot;_NEW&quot;&gt;http://www.torrenting.com&lt;/a&gt;\n\nSign up is OPEN - for time being. Come and have fun.\n\n------------------------------------------------------------------[img]http://s24.postimg.org/ifhd4rs3p/MV5_BMTA5_MTU2_Nj_Ix_OTNe_QTJe_QWpw_Z15_Bb_WU4_MDA5_Njc0_MDIx.jpg[/img]\n \n[color=red][b]The Salvation 2014 BRRip x264 AAC-MiLLENiUM[/b][/color]\n\n[color=red]General[/color]\n\nSource...............: 1080p.BluRay.x264.DTS-RBG [THANKS]\nIMDb Information.... : http://www.imdb.com/title/tt2720680/\nSample Included......: yes\nSubtitles............: YES HARDCODED FOR FOREIGN PARTS ONLY\n\nGeneral\nComplete name                            : The Salvation 2014 BRRip x264 AAC-MiLLENiUM.mp4\nFormat                                   : MPEG-4\nFormat profile                           : Base Media\nCodec ID                                 : isom\nFile size                                : 1.05 GiB\nDuration                                 : 1h 32mn\nOverall bit rate mode                    : Variable\nOverall bit rate                         : 1 633 Kbps\nEncoded date                             : UTC 2014-11-24 10:52:25\nTagged date                              : UTC 2014-11-24 10:52:25\n\nVideo\nID                                       : 1\nFormat                                   : AVC\nFormat/Info                              : Advanced Video Codec\nFormat profile                           : &lt;a class=&quot;__cf_email__&quot; href=&quot;/cdn-cgi/l/email-protection&quot; data-cfemail=&quot;bdf5d4dad5fdf189938c&quot;&gt;[email&amp;#160;protected]&lt;/a&gt;&lt;script cf-hash='f9e31' type=&quot;text/javascript&quot;&gt;\n/* &lt;![CDATA[ */!function(){try{var t=&quot;currentScript&quot;in document?document.currentScript:function(){for(var t=document.getElementsByTagName(&quot;script&quot;),e=t.length;e--;)if(t[e].getAttribute(&quot;cf-hash&quot;))return t[e]}();if(t&amp;&amp;t.previousSibling){var e,r,n,i,c=t.previousSibling,a=c.getAttribute(&quot;data-cfemail&quot;);if(a){for(e=&quot;&quot;,r=parseInt(a.substr(0,2),16),n=2;a.length-n;n+=2)i=parseInt(a.substr(n,2),16)^r,e+=String.fromCharCode(i);e=document.createTextNode(e),c.parentNode.replaceChild(e,c)}}}catch(u){}}();/* ]]&gt; */&lt;/script&gt;\nFormat settings, CABAC                   : Yes\nFormat settings, ReFrames                : 3 frames\nCodec ID                                 : avc1\nCodec ID/Info                            : Advanced Video Coding\nDuration                                 : 1h 32mn\nBit rate mode                            : Variable\nBit rate                                 : 1 279 Kbps\nMaximum bit rate                         : 40.0 Mbps\nWidth                                    : 720 pixels\nHeight                                   : 304 pixels\nDisplay aspect ratio                     : 2.35:1\nFrame rate mode                          : Constant\nFrame rate                               : 24.000 fps\nColor space                              : YUV\nChroma subsampling                       : 4:2:0\nBit depth                                : 8 bits\nScan type                                : Progressive\nBits/(Pixel*Frame)                       : 0.243\nStream size                              : 842 MiB (78%)\nWriting library                          : x264 core 142 r2479 dd79a61\nColor range                              : Full\n\nAudio\nID                                       : 2\nFormat                                   : AAC\nFormat/Info                              : Advanced Audio Codec\nFormat profile                           : LC\nCodec ID                                 : 40\nDuration                                 : 1h 31mn\nBit rate mode                            : Variable\nBit rate                                 : 353 Kbps\nMaximum bit rate                         : 425 Kbps\nChannel(s)                               : 6 channels\nChannel positions                        : Front: L C R, Side: L R, LFE\nSampling rate                            : 48.0 KHz\nCompression mode                         : Lossy\nStream size                              : 231 MiB (21%)\nLanguage                                 : English\nEncoded date                             : UTC 2014-11-24 08:49:55\nTagged date                              : UTC 2014-11-24 10:52:44\n\n[color=red]Plot[/color]\n\nIn 1870s America, a peaceful American settler kills his family's murderer which unleashes the fury of a notorious gang leader. His cowardly fellow townspeople then betray him, forcing him to hunt down the outlaws alone.\n \n[color=red]Screenshots[/color]\n\n[img]http://s13.postimg.org/ml5yr5byv/vlcsnap_2014_11_24_10h58m44s13.jpg[/img]\n[img]http://s13.postimg.org/ks322tqs7/vlcsnap_2014_11_24_10h59m25s210.jpg[/img]\n[img]http://s13.postimg.org/ei7sftrdj/vlcsnap_2014_11_24_11h00m01s55.jpg[/img]\n[img]http://s13.postimg.org/d4kqy9hhz/vlcsnap_2014_11_24_11h00m14s185.jpg[/img]\n[img]http://s13.postimg.org/hnse619zr/vlcsnap_2014_11_24_11h01m11s248.jpg[/img]\n[img]http://s13.postimg.org/vy6jv9fpz/vlcsnap_2014_11_24_11h01m38s249.jpg[/img]\n[img]http://s13.postimg.org/b2k9k0jiv/vlcsnap_2014_11_24_11h01m58s178.jpg[/img]","torrent":{"xt":"urn:btih:3dc7e07603c50c49e249c911630f150a61530879","amp;dn":"The+Salvation+2014+BRRip+x264+AAC-MiLLENiUM","amp;tr":["udp%3A%2F%2Ftracker.openbittorrent.com%3A80","udp%3A%2F%2Fopen.demonii.com%3A1337","udp%3A%2F%2Ftracker.coppersurfer.tk%3A6969","udp%3A%2F%2Fexodus.desync.com%3A6969"],"infoHash":"3dc7e07603c50c49e249c911630f150a61530879","infoHashBuffer":{"type":"Buffer","data":[61,199,224,118,3,197,12,73,226,73,201,17,99,15,21,10,97,83,8,121]},"announce":[],"urlList":[]}}